<svg width="168" height="120" viewBox="0 0 168 120" xmlns="http://www.w3.org/2000/svg">
<path d="M86.2047 26.6045C87.3156 27.2459 88 28.4313 88 29.7141C88 30.9969 87.3156 32.1823 86.2047 32.8237L44 57.1906C41.5248 58.6197 40 61.2607 40 64.1188V112C40 116.418 36.4183 120 32 120H8C3.58173 120 0 116.418 0 112V8C0 3.58172 3.58173 1.53533e-07 8 1.53533e-07H37.9808C39.3851 1.53533e-07 40.7646 0.36965 41.9808 1.0718L86.2047 26.6045Z"/>
<path d="M88 18.4034V8C88 3.58173 84.4183 1.53533e-07 80 1.53533e-07H56.1244L88 18.4034Z"/>
<path d="M56 120C51.5817 120 48 116.418 48 112V66.4282C48 64.9991 48.7624 63.6786 50 62.9641L88 41.0248V112C88 116.418 84.4183 120 80 120H56Z"/>
<path d="M108.57 1.97226L165.362 53.8963C168.879 57.1116 168.879 62.8884 165.362 66.1037L108.57 118.028C103.642 122.533 96 118.822 96 111.924V8.07593C96 1.17789 103.642 -2.53303 108.57 1.97226Z"/>
</svg>
